<svg height="16" viewBox="0 0 16 13" width="16"><path d="M15.287 2.587a.333.333 0 00-.134-.58l-.526-.134a.333.333 0 01-.22-.466L14.7.813a.334.334 0 00-.387-.466L12.98.72a.33.33 0 01-.293-.053 3.332 3.332 0 00-5.334 2.666v.24a.166.166 0 01-.146.167c-1.874.22-3.667-.733-5.6-2.96a.34.34 0 00-.34-.1.333.333 0 00-.194.28 5.052 5.052 0 00.307 3.28.167.167 0 01-.173.24L.46 4.333a.334.334 0 00-.38.394 3.436 3.436 0 001.58 2.52c.083.04.117.14.077.222a.162.162 0 01-.077.078l-.353.14a.333.333 0 00-.186.433l.012.027A2.905 2.905 0 003.267 9.8a.167.167 0 010 .313 7.293 7.293 0 01-2.86.554.34.34 0 10-.134.666A13.374 13.374 0 005.7 12.62a8.394 8.394 0 004.667-1.333 8.334 8.334 0 003.706-6.954v-.58a.335.335 0 01.12-.253l1.094-.913z" fill="currentColor"></path></svg>